<svg xmlns="http://www.w3.org/2000/svg" xmlns:xlink="http://www.w3.org/1999/xlink" zoomAndPan="magnify" viewBox="-31 486 1551 728" preserveAspectRatio="xMidYMid meet" version="1.0"><defs><g/><clipPath id="8cb9cf6471"><rect x="0" width="1487" y="0" height="1389"/></clipPath></defs><g transform="matrix(1, 0, 0, 1, 13, 63)"><g clip-path="url(#8cb9cf6471)"><g fill="#202124" fill-opacity="1"><g transform="translate(1.099283, 1103.172513)"><g><path d="M 654.578125 -631.21875 L 692.453125 -631.21875 L 692.453125 0 L 654.578125 0 L 654.578125 -174.84375 C 636.898438 -137.8125 613.015625 -105.09375 582.921875 -76.6875 C 552.835938 -48.28125 518.4375 -26.082031 479.71875 -10.09375 C 441.007812 5.894531 399.769531 13.890625 356 13.890625 C 310.550781 13.890625 267.835938 5.261719 227.859375 -11.984375 C 187.890625 -29.242188 152.753906 -53.019531 122.453125 -83.3125 C 92.160156 -113.613281 68.382812 -148.753906 51.125 -188.734375 C 33.875 -228.710938 25.25 -271.425781 25.25 -316.875 C 25.25 -361.894531 33.769531 -404.289062 50.8125 -444.0625 C 67.851562 -483.832031 91.414062 -518.96875 121.5 -549.46875 C 151.59375 -579.976562 186.734375 -603.960938 226.921875 -621.421875 C 267.109375 -638.890625 310.132812 -647.625 356 -647.625 C 399.34375 -647.625 440.375 -639.734375 479.09375 -623.953125 C 517.8125 -608.171875 552.316406 -586.179688 582.609375 -557.984375 C 612.910156 -529.796875 636.898438 -496.976562 654.578125 -459.53125 Z M 477.203125 -138.875 C 502.023438 -138.875 525.164062 -143.5 546.625 -152.75 C 568.09375 -162.007812 586.820312 -174.738281 602.8125 -190.9375 C 618.800781 -207.144531 631.316406 -226.082031 640.359375 -247.75 C 649.410156 -269.425781 653.9375 -292.46875 653.9375 -316.875 C 653.9375 -350.539062 646.148438 -380.835938 630.578125 -407.765625 C 615.015625 -434.703125 593.976562 -455.953125 567.46875 -471.515625 C 540.957031 -487.085938 511.289062 -494.875 478.46875 -494.875 C 446.0625 -494.875 416.390625 -487.191406 389.453125 -471.828125 C 362.523438 -456.472656 340.957031 -435.429688 324.75 -408.703125 C 308.550781 -381.984375 300.453125 -351.375 300.453125 -316.875 C 300.453125 -292.46875 304.867188 -269.53125 313.703125 -248.0625 C 322.546875 -226.601562 334.960938 -207.664062 350.953125 -191.25 C 366.941406 -174.84375 385.664062 -162.007812 407.125 -152.75 C 428.59375 -143.5 451.953125 -138.875 477.203125 -138.875 Z M 477.203125 -138.875 "/></g></g></g><g fill="#202124" fill-opacity="1"><g transform="translate(744.045287, 1103.172513)"><g><path d="M 654.578125 -631.21875 L 692.453125 -631.21875 L 692.453125 0 L 654.578125 0 L 654.578125 -174.84375 C 636.898438 -137.8125 613.015625 -105.09375 582.921875 -76.6875 C 552.835938 -48.28125 518.4375 -26.082031 479.71875 -10.09375 C 441.007812 5.894531 399.769531 13.890625 356 13.890625 C 310.550781 13.890625 267.835938 5.261719 227.859375 -11.984375 C 187.890625 -29.242188 152.753906 -53.019531 122.453125 -83.3125 C 92.160156 -113.613281 68.382812 -148.753906 51.125 -188.734375 C 33.875 -228.710938 25.25 -271.425781 25.25 -316.875 C 25.25 -361.894531 33.769531 -404.289062 50.8125 -444.0625 C 67.851562 -483.832031 91.414062 -518.96875 121.5 -549.46875 C 151.59375 -579.976562 186.734375 -603.960938 226.921875 -621.421875 C 267.109375 -638.890625 310.132812 -647.625 356 -647.625 C 399.34375 -647.625 440.375 -639.734375 479.09375 -623.953125 C 517.8125 -608.171875 552.316406 -586.179688 582.609375 -557.984375 C 612.910156 -529.796875 636.898438 -496.976562 654.578125 -459.53125 Z M 477.203125 -138.875 C 502.023438 -138.875 525.164062 -143.5 546.625 -152.75 C 568.09375 -162.007812 586.820312 -174.738281 602.8125 -190.9375 C 618.800781 -207.144531 631.316406 -226.082031 640.359375 -247.75 C 649.410156 -269.425781 653.9375 -292.46875 653.9375 -316.875 C 653.9375 -350.539062 646.148438 -380.835938 630.578125 -407.765625 C 615.015625 -434.703125 593.976562 -455.953125 567.46875 -471.515625 C 540.957031 -487.085938 511.289062 -494.875 478.46875 -494.875 C 446.0625 -494.875 416.390625 -487.191406 389.453125 -471.828125 C 362.523438 -456.472656 340.957031 -435.429688 324.75 -408.703125 C 308.550781 -381.984375 300.453125 -351.375 300.453125 -316.875 C 300.453125 -292.46875 304.867188 -269.53125 313.703125 -248.0625 C 322.546875 -226.601562 334.960938 -207.664062 350.953125 -191.25 C 366.941406 -174.84375 385.664062 -162.007812 407.125 -152.75 C 428.59375 -143.5 451.953125 -138.875 477.203125 -138.875 Z M 477.203125 -138.875 "/></g></g></g></g></g></svg>