<svg xmlns="http://www.w3.org/2000/svg" xmlns:xlink="http://www.w3.org/1999/xlink" zoomAndPan="magnify" viewBox="39 408 1386 390" preserveAspectRatio="xMidYMid meet" version="1.0"><defs><g/><clipPath id="fdba26c0c6"><rect x="0" width="1386" y="0" height="390"/></clipPath></defs><g transform="matrix(1, 0, 0, 1, 39, 408)"><g clip-path="url(#fdba26c0c6)"><g fill="#000000" fill-opacity="1"><g transform="translate(0.77366, 308.496332)"><g><path d="M 183.328125 -176.78125 L 193.9375 -176.78125 L 193.9375 0 L 183.328125 0 L 183.328125 -48.96875 C 178.378906 -38.59375 171.691406 -29.425781 163.265625 -21.46875 C 154.835938 -13.519531 145.203125 -7.304688 134.359375 -2.828125 C 123.515625 1.648438 111.960938 3.890625 99.703125 3.890625 C 86.972656 3.890625 75.007812 1.472656 63.8125 -3.359375 C 52.625 -8.191406 42.785156 -14.847656 34.296875 -23.328125 C 25.804688 -31.816406 19.144531 -41.660156 14.3125 -52.859375 C 9.488281 -64.054688 7.078125 -76.019531 7.078125 -88.75 C 7.078125 -101.363281 9.460938 -113.238281 14.234375 -124.375 C 19.003906 -135.507812 25.601562 -145.347656 34.03125 -153.890625 C 42.457031 -162.441406 52.296875 -169.160156 63.546875 -174.046875 C 74.804688 -178.941406 86.859375 -181.390625 99.703125 -181.390625 C 111.847656 -181.390625 123.34375 -179.175781 134.1875 -174.75 C 145.03125 -170.332031 154.691406 -164.175781 163.171875 -156.28125 C 171.660156 -148.382812 178.378906 -139.191406 183.328125 -128.703125 Z M 133.65625 -38.890625 C 140.601562 -38.890625 147.082031 -40.1875 153.09375 -42.78125 C 159.101562 -45.375 164.347656 -48.9375 168.828125 -53.46875 C 173.304688 -58.007812 176.8125 -63.316406 179.34375 -69.390625 C 181.882812 -75.460938 183.15625 -81.914062 183.15625 -88.75 C 183.15625 -98.175781 180.972656 -106.660156 176.609375 -114.203125 C 172.253906 -121.742188 166.363281 -127.695312 158.9375 -132.0625 C 151.507812 -136.425781 143.195312 -138.609375 134 -138.609375 C 124.925781 -138.609375 116.617188 -136.457031 109.078125 -132.15625 C 101.535156 -127.851562 95.492188 -121.957031 90.953125 -114.46875 C 86.421875 -106.988281 84.15625 -98.414062 84.15625 -88.75 C 84.15625 -81.914062 85.390625 -75.492188 87.859375 -69.484375 C 90.335938 -63.472656 93.816406 -58.164062 98.296875 -53.5625 C 102.773438 -48.96875 108.019531 -45.375 114.03125 -42.78125 C 120.039062 -40.1875 126.582031 -38.890625 133.65625 -38.890625 Z M 133.65625 -38.890625 "/></g></g></g><g fill="#000000" fill-opacity="1"><g transform="translate(208.853331, 308.496332)"><g><path d="M 14.140625 -247.5 L 24.75 -247.5 L 24.75 0 L 14.140625 0 Z M 14.140625 -247.5 "/></g></g></g><g fill="#000000" fill-opacity="1"><g transform="translate(247.746695, 308.496332)"><g><path d="M 246.09375 -176.78125 L 327.765625 -176.78125 L 263.59375 0 L 200.484375 0 L 164.765625 -97.9375 L 129.234375 0 L 66.125 0 L 1.765625 -176.78125 L 13.078125 -176.78125 L 62.578125 -40.84375 L 111.734375 -176.78125 L 193.40625 -176.78125 L 170.421875 -113.5 L 196.9375 -40.84375 Z M 246.09375 -176.78125 "/></g></g></g><g fill="#000000" fill-opacity="1"><g transform="translate(568.440373, 308.496332)"><g><path d="M 65.765625 -38.890625 C 73.191406 -38.890625 80.023438 -40.332031 86.265625 -43.21875 C 92.515625 -46.113281 97.90625 -50.0625 102.4375 -55.0625 C 106.976562 -60.070312 110.367188 -65.820312 112.609375 -72.3125 L 190.9375 -72.3125 C 188.925781 -61.582031 185.179688 -51.59375 179.703125 -42.34375 C 174.222656 -33.09375 167.414062 -24.988281 159.28125 -18.03125 C 151.15625 -11.082031 142.023438 -5.691406 131.890625 -1.859375 C 121.753906 1.972656 111.023438 3.890625 99.703125 3.890625 C 86.972656 3.890625 75.007812 1.472656 63.8125 -3.359375 C 52.625 -8.191406 42.785156 -14.847656 34.296875 -23.328125 C 25.804688 -31.816406 19.144531 -41.660156 14.3125 -52.859375 C 9.488281 -64.054688 7.078125 -76.019531 7.078125 -88.75 C 7.078125 -101.707031 9.519531 -113.816406 14.40625 -125.078125 C 19.300781 -136.335938 26.019531 -146.179688 34.5625 -154.609375 C 43.101562 -163.035156 52.972656 -169.601562 64.171875 -174.3125 C 75.367188 -179.03125 87.210938 -181.390625 99.703125 -181.390625 C 111.492188 -181.390625 122.570312 -179.328125 132.9375 -175.203125 C 143.3125 -171.078125 152.59375 -165.390625 160.78125 -158.140625 C 168.976562 -150.890625 175.757812 -142.460938 181.125 -132.859375 C 186.488281 -123.253906 189.9375 -112.910156 191.46875 -101.828125 L 17.859375 -101.828125 C 16.796875 -97.816406 16.265625 -93.457031 16.265625 -88.75 C 16.265625 -81.914062 17.53125 -75.460938 20.0625 -69.390625 C 22.59375 -63.316406 26.097656 -58.007812 30.578125 -53.46875 C 35.054688 -48.9375 40.300781 -45.375 46.3125 -42.78125 C 52.320312 -40.1875 58.804688 -38.890625 65.765625 -38.890625 Z M 65.40625 -138.609375 C 55.863281 -138.609375 47.257812 -136.21875 39.59375 -131.4375 C 31.9375 -126.664062 26.046875 -120.332031 21.921875 -112.4375 L 109.609375 -112.4375 C 105.367188 -120.445312 99.328125 -126.8125 91.484375 -131.53125 C 83.648438 -136.25 74.957031 -138.609375 65.40625 -138.609375 Z M 65.40625 -138.609375 "/></g></g></g><g fill="#000000" fill-opacity="1"><g transform="translate(766.973412, 308.496332)"><g><path d="M 194.46875 0 L 117.03125 0 L 117.03125 -85.21875 C 117.03125 -98.414062 115.054688 -109.050781 111.109375 -117.125 C 107.160156 -125.195312 101.707031 -131.085938 94.75 -134.796875 C 87.800781 -138.515625 79.789062 -140.375 70.71875 -140.375 C 60.101562 -140.375 50.640625 -137.101562 42.328125 -130.5625 C 34.023438 -124.019531 28.164062 -115.09375 24.75 -103.78125 L 24.75 0 L 14.140625 0 L 14.140625 -176.78125 L 24.75 -176.78125 L 24.75 -127.28125 C 29.46875 -138.476562 35.710938 -148.113281 43.484375 -156.1875 C 51.265625 -164.257812 60.101562 -170.476562 70 -174.84375 C 79.90625 -179.207031 90.398438 -181.390625 101.484375 -181.390625 C 114.441406 -181.390625 126.519531 -179.414062 137.71875 -175.46875 C 148.914062 -171.519531 158.726562 -165.65625 167.15625 -157.875 C 175.582031 -150.09375 182.179688 -140.425781 186.953125 -128.875 C 191.722656 -117.320312 194.109375 -103.945312 194.109375 -88.75 Z M 194.46875 0 "/></g></g></g><g fill="#000000" fill-opacity="1"><g transform="translate(968.511892, 308.496332)"><g><path d="M 183.328125 -247.5 L 193.9375 -247.5 L 193.9375 0 L 183.328125 0 L 183.328125 -48.96875 C 178.378906 -38.59375 171.691406 -29.425781 163.265625 -21.46875 C 154.835938 -13.519531 145.203125 -7.304688 134.359375 -2.828125 C 123.515625 1.648438 111.960938 3.890625 99.703125 3.890625 C 86.972656 3.890625 75.007812 1.472656 63.8125 -3.359375 C 52.625 -8.191406 42.785156 -14.847656 34.296875 -23.328125 C 25.804688 -31.816406 19.144531 -41.660156 14.3125 -52.859375 C 9.488281 -64.054688 7.078125 -76.019531 7.078125 -88.75 C 7.078125 -101.363281 9.460938 -113.238281 14.234375 -124.375 C 19.003906 -135.507812 25.601562 -145.347656 34.03125 -153.890625 C 42.457031 -162.441406 52.296875 -169.160156 63.546875 -174.046875 C 74.804688 -178.941406 86.859375 -181.390625 99.703125 -181.390625 C 111.847656 -181.390625 123.34375 -179.175781 134.1875 -174.75 C 145.03125 -170.332031 154.691406 -164.175781 163.171875 -156.28125 C 171.660156 -148.382812 178.378906 -139.191406 183.328125 -128.703125 Z M 133.65625 -38.890625 C 140.601562 -38.890625 147.082031 -40.1875 153.09375 -42.78125 C 159.101562 -45.375 164.347656 -48.9375 168.828125 -53.46875 C 173.304688 -58.007812 176.8125 -63.316406 179.34375 -69.390625 C 181.882812 -75.460938 183.15625 -81.914062 183.15625 -88.75 C 183.15625 -98.175781 180.972656 -106.660156 176.609375 -114.203125 C 172.253906 -121.742188 166.363281 -127.695312 158.9375 -132.0625 C 151.507812 -136.425781 143.195312 -138.609375 134 -138.609375 C 124.925781 -138.609375 116.617188 -136.457031 109.078125 -132.15625 C 101.535156 -127.851562 95.492188 -121.957031 90.953125 -114.46875 C 86.421875 -106.988281 84.15625 -98.414062 84.15625 -88.75 C 84.15625 -81.914062 85.390625 -75.492188 87.859375 -69.484375 C 90.335938 -63.472656 93.816406 -58.164062 98.296875 -53.5625 C 102.773438 -48.96875 108.019531 -45.375 114.03125 -42.78125 C 120.039062 -40.1875 126.582031 -38.890625 133.65625 -38.890625 Z M 133.65625 -38.890625 "/></g></g></g><g fill="#000000" fill-opacity="1"><g transform="translate(1176.591551, 308.496332)"><g><path d="M 183.328125 -176.78125 L 193.9375 -176.78125 L 193.9375 0 L 183.328125 0 L 183.328125 -48.96875 C 178.378906 -38.59375 171.691406 -29.425781 163.265625 -21.46875 C 154.835938 -13.519531 145.203125 -7.304688 134.359375 -2.828125 C 123.515625 1.648438 111.960938 3.890625 99.703125 3.890625 C 86.972656 3.890625 75.007812 1.472656 63.8125 -3.359375 C 52.625 -8.191406 42.785156 -14.847656 34.296875 -23.328125 C 25.804688 -31.816406 19.144531 -41.660156 14.3125 -52.859375 C 9.488281 -64.054688 7.078125 -76.019531 7.078125 -88.75 C 7.078125 -101.363281 9.460938 -113.238281 14.234375 -124.375 C 19.003906 -135.507812 25.601562 -145.347656 34.03125 -153.890625 C 42.457031 -162.441406 52.296875 -169.160156 63.546875 -174.046875 C 74.804688 -178.941406 86.859375 -181.390625 99.703125 -181.390625 C 111.847656 -181.390625 123.34375 -179.175781 134.1875 -174.75 C 145.03125 -170.332031 154.691406 -164.175781 163.171875 -156.28125 C 171.660156 -148.382812 178.378906 -139.191406 183.328125 -128.703125 Z M 133.65625 -38.890625 C 140.601562 -38.890625 147.082031 -40.1875 153.09375 -42.78125 C 159.101562 -45.375 164.347656 -48.9375 168.828125 -53.46875 C 173.304688 -58.007812 176.8125 -63.316406 179.34375 -69.390625 C 181.882812 -75.460938 183.15625 -81.914062 183.15625 -88.75 C 183.15625 -98.175781 180.972656 -106.660156 176.609375 -114.203125 C 172.253906 -121.742188 166.363281 -127.695312 158.9375 -132.0625 C 151.507812 -136.425781 143.195312 -138.609375 134 -138.609375 C 124.925781 -138.609375 116.617188 -136.457031 109.078125 -132.15625 C 101.535156 -127.851562 95.492188 -121.957031 90.953125 -114.46875 C 86.421875 -106.988281 84.15625 -98.414062 84.15625 -88.75 C 84.15625 -81.914062 85.390625 -75.492188 87.859375 -69.484375 C 90.335938 -63.472656 93.816406 -58.164062 98.296875 -53.5625 C 102.773438 -48.96875 108.019531 -45.375 114.03125 -42.78125 C 120.039062 -40.1875 126.582031 -38.890625 133.65625 -38.890625 Z M 133.65625 -38.890625 "/></g></g></g></g></g></svg>